<svg width="148" height="221" viewBox="0 0 148 221" fill="none" xmlns="http://www.w3.org/2000/svg">
<g opacity="0.08">
<path fill-rule="evenodd" clip-rule="evenodd" d="M73.6667 18.4167C43.1529 18.4167 18.4167 43.1529 18.4167 73.6667C18.4167 104.18 43.1529 128.917 73.6667 128.917C104.18 128.917 128.917 104.18 128.917 73.6667C128.917 43.1529 104.18 18.4167 73.6667 18.4167ZM0 73.6667C0 32.9817 32.9817 0 73.6667 0C114.352 0 147.333 32.9817 147.333 73.6667C147.333 114.352 114.352 147.333 73.6667 147.333C32.9817 147.333 0 114.352 0 73.6667Z" fill="white"/>
<path fill-rule="evenodd" clip-rule="evenodd" d="M107.355 118.683C112.397 118.014 117.026 121.559 117.695 126.601L128.837 210.581C129.302 214.086 127.719 217.547 124.764 219.488C121.808 221.429 118.003 221.507 114.971 219.688L73.6669 194.905L32.3629 219.688C29.3308 221.507 25.5248 221.429 22.5695 219.488C19.6141 217.547 18.0315 214.084 18.497 210.579L29.6391 126.691C30.3087 121.65 34.9384 118.106 39.9797 118.776C45.0211 119.445 48.5651 124.075 47.8955 129.116L39.2686 194.067L68.9292 176.271C71.8454 174.521 75.4884 174.521 78.4045 176.271L108.068 194.069L99.4381 129.023C98.7692 123.981 102.314 119.352 107.355 118.683Z" fill="white"/>
</g>
</svg>
